<?xml version="1.0" encoding="UTF-8"?>
<svg xmlns="http://www.w3.org/2000/svg" xmlns:xlink="http://www.w3.org/1999/xlink" width="40px" height="28px" viewBox="0 0 40 28" version="1.1">
    <!-- Generator: Sketch 47.1 (45422) - http://www.bohemiancoding.com/sketch -->
    
    
    <defs>
        <linearGradient x1="-1.11022302e-14%" y1="50%" x2="97.7080676%" y2="50%" id="linearGradient-1">
            <stop stop-color="#FF5151" offset="0%"/>
            <stop stop-color="#FE9604" offset="100%"/>
        </linearGradient>
        <linearGradient x1="-1.11022302e-14%" y1="50%" x2="100%" y2="50%" id="linearGradient-2">
            <stop stop-color="#8ECEFF" offset="0%"/>
            <stop stop-color="#55A0FE" offset="100%"/>
        </linearGradient>
    </defs>
    <g id="Autospinn-----forum" stroke="none" stroke-width="1" fill="none" fill-rule="evenodd">
        <g id="forum----categories-2" transform="translate(-91.000000, -20.000000)">
            <g id="chat-logo" transform="translate(91.000000, 20.000000)">
                <g id="Group-19">
                    <path d="M21.4871429,22.157619 L11.9042857,22.157619 L6.79285714,27.3995238 C6.16047619,27.9233333 5.62333333,27.8938095 5.62333333,26.6861905 L5.71380952,22.157619 L2.32238095,22.157619 C1.03952381,22.157619 -0.000476190476,21.117619 -0.000476190476,19.8357143 L-0.000476190476,9.34619048 C-0.000476190476,8.06333333 1.03952381,7.02333333 2.32238095,7.02333333 L21.4871429,7.02333333 C22.77,7.02333333 23.8090476,8.06333333 23.8090476,9.34619048 L23.8090476,19.8357143 C23.8090476,21.117619 22.77,22.157619 21.4871429,22.157619" id="Fill-1" fill="url(#linearGradient-1)"/>
                    <path d="M17.7985714,16.0861905 L27.3814286,16.0861905 L32.4928571,21.3280952 C33.1252381,21.8519048 33.662381,21.822381 33.662381,20.6147619 L33.5719048,16.0861905 L36.9633333,16.0861905 C38.2461905,16.0861905 39.2861905,15.0461905 39.2861905,13.7642857 L39.2861905,3.2747619 C39.2861905,1.99190476 38.2461905,0.951904762 36.9633333,0.951904762 L17.7985714,0.951904762 C16.5157143,0.951904762 15.4766667,1.99190476 15.4766667,3.2747619 L15.4766667,13.7642857 C15.4766667,15.0461905 16.5157143,16.0861905 17.7985714,16.0861905" id="Fill-4" fill="url(#linearGradient-2)"/>
                    <path d="M21.4871429,7.02361905 L15.4757143,7.02361905 L15.4757143,13.763619 C15.4757143,15.0464762 16.5157143,16.0864762 17.7985714,16.0864762 L23.8090476,16.0864762 L23.8090476,9.34552381 C23.8090476,8.06361905 22.77,7.02361905 21.4871429,7.02361905" id="Fill-7" fill="#FFFFFF"/>
                </g>
            </g>
        </g>
    </g>
</svg>
