<?xml version="1.0" encoding="UTF-8"?>
<svg width="319px" height="28px" viewBox="0 0 319 28" version="1.1" xmlns="http://www.w3.org/2000/svg" xmlns:xlink="http://www.w3.org/1999/xlink">
    <!-- Generator: Sketch 47.1 (45422) - http://www.bohemiancoding.com/sketch -->
    <title>Group 5</title>
    <desc>Created with Sketch.</desc>
    <defs>
        <polygon id="path-1" points="39.2411765 27.4457098 39.2411765 0.508611765 0.19012549 0.508611765 0.19012549 27.4457098 39.2411765 27.4457098"></polygon>
        <linearGradient x1="-1.11022302e-14%" y1="50%" x2="97.7080676%" y2="50%" id="linearGradient-3">
            <stop stop-color="#FF5151" offset="0%"></stop>
            <stop stop-color="#FE9604" offset="100%"></stop>
        </linearGradient>
        <linearGradient x1="-1.11022302e-14%" y1="50%" x2="100%" y2="50%" id="linearGradient-4">
            <stop stop-color="#8ECEFF" offset="0%"></stop>
            <stop stop-color="#55A0FE" offset="100%"></stop>
        </linearGradient>
    </defs>
    <g id="Autospinn-----forum" stroke="none" stroke-width="1" fill="none" fill-rule="evenodd">
        <g id="forum----home---categories-2" transform="translate(-91.000000, -20.000000)">
            <g id="Group-5" transform="translate(91.000000, 20.000000)">
                <g id="Page-1-Copy" transform="translate(45.000000, 0.000000)">
                    <g id="Group-3" transform="translate(0.000000, 0.056439)" fill="#FFFFFF">
                        <path d="M19.4451216,27.4296235 L-5.49019608e-05,27.4296235 L4.85382745,20.3807608 L6.73696471,17.6318196 L11.7917882,10.2903294 L13.6853569,7.54138824 L17.8743765,1.43903529 C18.2768078,0.854878431 18.9213569,0.49252549 19.6466118,0.49252549 L26.9167294,0.49252549 C27.9340627,0.49252549 28.7899843,1.21778039 28.9914745,2.18460392 L29.4949255,4.89291765 L29.9884941,7.54138824 L30.5018275,10.2903294 L30.6528078,11.1166039 L31.8612,17.6318196 L32.3750824,20.3807608 L33.1299843,24.4791922 L33.6839451,27.4296235 L25.6281804,27.4296235 L24.3088863,20.3807608 L23.8054353,17.6318196 L22.4361804,10.2903294 L17.3604941,17.6318196 L15.4674745,20.3807608 L24.2885725,20.3807608 L19.4451216,27.4296235 Z" id="Fill-1"></path>
                    </g>
                    <path d="M105.952055,12.9508235 L106.42531,11.5612549 C106.455506,11.4706667 106.485702,11.3800784 106.515898,11.2894902 C106.556525,11.198902 106.586722,11.1083137 106.6268,11.0177255 C106.727271,10.7854902 106.838173,10.5741176 106.969388,10.3627451 C107.855506,8.86227451 109.426251,7.81529412 111.248996,7.644 C111.42029,7.62368627 111.601467,7.61380392 111.782643,7.61380392 L114.622173,7.61380392 C114.823663,7.61380392 115.025153,7.63411765 115.216761,7.66431373 C115.417702,7.6945098 115.60931,7.74447059 115.800369,7.82517647 C116.938486,8.21772549 117.814722,9.17466667 118.086486,10.3627451 C118.156761,10.6246275 118.186957,10.8963922 118.186957,11.1785882 C118.186957,11.4904314 118.146878,11.7929412 118.076055,12.0850196 C118.046408,12.1854902 118.016212,12.2760784 117.985467,12.3666667 L117.189937,14.7532549 L117.079584,15.0958431 C117.066957,15.1364706 117.049388,15.176 117.038957,15.2166275 L116.595898,16.5156078 C116.565702,16.6061961 116.535506,16.6967843 116.50531,16.7774902 C116.465231,16.8680784 116.435035,16.9487843 116.394957,17.0393725 C116.30382,17.2710588 116.193467,17.4923137 116.062251,17.7036863 C115.166251,19.2041569 113.594957,20.2516863 111.772761,20.4229804 C111.591035,20.4427451 111.409859,20.4531765 111.228682,20.4531765 L108.399035,20.4531765 C106.707506,20.4531765 105.297624,19.2749804 104.935271,17.7036863 C104.864447,17.4418039 104.834251,17.1700392 104.834251,16.8883922 C104.834251,16.5156078 104.884761,16.1631373 104.995663,15.820549 C105.025859,15.7101961 105.065937,15.5992941 105.106016,15.4988235 L105.841153,13.2829804 L105.952055,12.9508235 Z M121.852761,0.846588235 C121.157702,0.665411765 120.432447,0.564941176 119.677545,0.564941176 L110.100996,0.564941176 C105.005545,0.574823529 100.574957,3.42478431 98.3091529,7.61380392 C97.9967608,8.17764706 97.7348784,8.77168627 97.5037412,9.37615686 C97.4126039,9.61772549 97.3324471,9.85929412 97.2616235,10.1112941 C97.2314275,10.191451 97.2116627,10.2820392 97.191349,10.3627451 L95.3082118,15.931451 C95.3016235,15.9449935 95.2344601,16.1464837 95.1067216,16.5359216 C94.9859373,16.9284706 94.9052314,17.3111373 94.8552706,17.7036863 C94.7943294,18.1066667 94.7646824,18.5195294 94.7646824,18.9323922 C94.7646824,19.4457255 94.8146431,19.9596078 94.9052314,20.4531765 C95.4893882,23.7456471 97.9665647,26.3941176 101.168996,27.2198431 C101.863506,27.411451 102.588761,27.5020392 103.33378,27.5020392 L112.920761,27.5020392 C118.016212,27.4817255 122.436918,24.6317647 124.702173,20.4531765 C125.014565,19.8887843 125.276447,19.3051765 125.508133,18.6908235 C125.598722,18.4591373 125.679427,18.2071373 125.749702,17.9556863 C125.779898,17.8749804 125.800212,17.7942745 125.819976,17.7036863 L127.723427,12.0745882 C127.78382,11.9137255 127.844212,11.7523137 127.88429,11.5815686 C128.005075,11.1884706 128.095663,10.7854902 128.156604,10.3627451 C128.216996,9.95976471 128.247192,9.54745098 128.247192,9.13458824 C128.247192,8.62070588 128.196682,8.10737255 128.115976,7.61380392 C127.521937,4.32078431 125.054643,1.6827451 121.852761,0.846588235 Z" id="Fill-4" fill="#FFFFFF"></path>
                    <polygon id="Fill-6" fill="#FFFFFF" points="72.8560549 0.559286275 98.8060157 0.559286275 96.3540941 7.8821098 87.7784078 7.8821098 81.1923686 27.5073647 72.3723686 27.5073647 78.9540157 7.88650196 70.4013882 7.88650196"></polygon>
                    <polygon id="Fill-8" fill="#55A0FE" points="239.938424 0.56505098 237.572149 7.61391373 236.645404 10.3628549 234.188541 17.7043451 233.262345 20.4532863 230.905953 27.502149 218.902188 27.502149 217.582894 20.4532863 217.079992 17.7043451 215.710188 10.3628549 215.700306 10.3628549 213.242894 17.7043451 212.316698 20.4532863 209.960306 27.502149 200.887208 27.502149 203.2436 20.4532863 204.169796 17.7043451 206.627208 10.3628549 207.553404 7.61391373 209.919678 0.56505098 221.943208 0.56505098 223.25262 7.61391373 223.765953 10.3628549 225.125875 17.7043451 227.582737 10.3628549 228.508933 7.61391373 230.875208 0.56505098"></polygon>
                    <g id="Group-12" transform="translate(234.431373, 0.056439)">
                        <mask id="mask-2" fill="white">
                            <use xlink:href="#path-1"></use>
                        </mask>
                        <g id="Clip-11"></g>
                        <polygon id="Fill-10" fill="#55A0FE" mask="url(#mask-2)" points="39.2413412 0.508611765 36.8750667 7.55747451 35.9483216 10.3064157 33.4914588 17.6479059 32.5652627 20.3968471 30.2088706 27.4457098 18.2051059 27.4457098 16.8858118 20.3968471 16.3829098 17.6479059 15.0131059 10.3064157 15.0032235 10.3064157 12.5458118 17.6479059 11.6196157 20.3968471 9.26322353 27.4457098 0.19012549 27.4457098 2.54651765 20.3968471 3.47271373 17.6479059 5.93012549 10.3064157 6.85632157 7.55747451 9.22259608 0.508611765 21.2461255 0.508611765 22.5555373 7.55747451 23.0688706 10.3064157 24.4287922 17.6479059 26.8856549 10.3064157 27.811851 7.55747451 30.1781255 0.508611765"></polygon>
                    </g>
                    <path d="M22.522651,10.3628549 L22.4924549,10.3628549" id="Fill-13" fill="#01377B"></path>
                    <path d="M69.9166039,0.564776471 L67.5503294,7.61363922 L66.6235843,10.3625804 L64.1667216,17.7040706 L63.2399765,20.4530118 L62.9281333,21.4094039 C62.8776235,21.5603843 62.8271137,21.7119137 62.7667216,21.8727765 C61.5583294,25.1559137 58.3965255,27.5018745 54.6906431,27.5018745 L42.1740941,27.5018745 C38.0048392,27.5018745 34.6212314,24.1182667 34.6212314,19.9495608 C34.6212314,19.1639137 34.7425647,18.4090118 34.9638196,17.7040706 L37.4206824,10.3625804 L38.3474275,7.61363922 L40.713702,0.564776471 L49.7769176,0.564776471 L47.4100941,7.61363922 L46.483898,10.3625804 L45.5472706,13.2026588 L45.3962902,13.6457176 L44.7720549,15.4986588 C44.7314275,15.5991294 44.691349,15.7100314 44.6611529,15.8209333 C44.550251,16.1629725 44.5002902,16.5154431 44.5002902,16.8882275 C44.5002902,17.1704235 44.5299373,17.4421882 44.6007608,17.7040706 C44.6710353,18.0263451 44.7923686,18.3381882 44.9532314,18.6203843 C45.0037412,18.6906588 45.0438196,18.7614824 45.083898,18.8317569 C45.3562118,19.2649333 45.7284471,19.6272863 46.1517412,19.899051 C46.7051529,20.2515216 47.3601333,20.4530118 48.0645255,20.4530118 L50.4110353,20.4530118 C52.3946431,20.4530118 54.1372314,19.3450902 55.023349,17.7040706 L55.415898,16.7674431 L57.429702,10.7655608 L57.5609176,10.3625804 L58.4871137,7.61363922 L60.8533882,0.564776471 L69.9166039,0.564776471 Z" id="Fill-15" fill="#FFFFFF"></path>
                    <path d="M24.3955216,20.4529569 L24.3856392,20.4529569" id="Fill-17" fill="#01377B"></path>
                    <path d="M24.3955216,20.4529569 L24.3856392,20.4529569" id="Fill-19" fill="#01377B"></path>
                    <path d="M105.055835,12.8501882 L104.894973,13.3031294" id="Fill-21" fill="#01377B"></path>
                    <path d="M105.488902,11.551098 L105.126549,12.6485882" id="Fill-23" fill="#01377B"></path>
                    <path d="M105.488902,11.551098 L105.126549,12.6485882" id="Fill-25" fill="#01377B"></path>
                    <path d="M55.9648627,16.7674431 L55.6524706,17.7040706 L55.5723137,17.7040706 C55.7331765,17.4119922 55.8643922,17.0996 55.9648627,16.7674431" id="Fill-27" fill="#01377B"></path>
                    <polygon id="Fill-29" fill="#55A0FE" points="206.5364 0.564776471 204.170125 7.61363922 203.24338 10.3625804 200.786518 17.7040706 199.859773 20.4530118 197.50338 27.5018745 188.440714 27.5018745 190.797106 20.4530118 191.723302 17.7040706 194.180714 10.3625804 195.10691 7.61363922 197.473184 0.564776471"></polygon>
                    <path d="M156.272063,20.4529569 L156.181475,20.4529569" id="Fill-31" fill="#55A0FE"></path>
                    <path d="M180.998588,10.3628549 L180.555529,10.3628549" id="Fill-33" fill="#55A0FE"></path>
                    <path d="M180.998588,10.3628549 L180.555529,10.3628549" id="Fill-35" fill="#55A0FE"></path>
                    <path d="M181.51258,10.3628549 L171.623639,10.3628549 L172.550384,7.61391373 L181.51258,7.61391373 C182.267482,7.61391373 182.881835,8.22826667 182.881835,8.9936 C182.881835,9.74850196 182.267482,10.3628549 181.51258,10.3628549 M191.904424,7.61391373 C191.713365,4.11940392 189.115404,1.25956078 185.75211,0.675403922 C185.399639,0.605129412 185.036737,0.56505098 184.664502,0.56505098 L165.843561,0.56505098 L163.477286,7.61391373 L162.560973,10.3628549 L160.103561,17.7037961 L159.177365,20.4527373 L156.820973,27.502149 L165.884188,27.502149 L168.240031,20.4527373 L169.166776,17.7037961 L182.942227,17.7037961 C186.638227,17.7037961 189.790149,15.3578353 190.988659,12.0845804 C191.049051,11.9237176 191.108894,11.7524235 191.159404,11.5915608 L191.562384,10.3628549 C191.572267,10.3326588 191.582698,10.3024627 191.59258,10.2722667 C191.803953,9.56732549 191.924737,8.82230588 191.924737,8.04654118 C191.924737,7.90599216 191.924737,7.75501176 191.904424,7.61391373" id="Fill-37" fill="#55A0FE"></path>
                    <path d="M140.317333,8.72139608 C140.307451,8.80210196 140.29702,8.8926902 140.29702,8.98327843 C140.29702,9.73872941 140.911373,10.3629647 141.666824,10.3629647 L149.390431,10.3629647 C149.752784,10.3629647 150.115137,10.3931608 150.457725,10.4535529 C152.069098,10.6748078 153.509176,11.4302588 154.586353,12.5381804 C155.905647,13.8569255 156.711059,15.6697882 156.711059,17.6737098 L156.711059,17.7039059 C156.711059,18.4489255 156.590275,19.164298 156.378902,19.8489255 L156.177412,20.4528471 L155.835373,21.459749 C155.794745,21.6008471 155.744235,21.7419451 155.694275,21.8830431 C154.495765,25.155749 151.343843,27.5017098 147.648392,27.5017098 L125.010667,27.5017098 L129.854118,20.4528471 L146.117725,20.4528471 C146.691451,20.4528471 147.18502,20.1003765 147.38651,19.6073569 C147.416706,19.526651 147.446902,19.4459451 147.467216,19.3553569 C147.48698,19.2647686 147.497412,19.164298 147.497412,19.0731608 C147.497412,18.3484549 146.933569,17.7439843 146.208314,17.7039059 L140.226745,17.7039059 C139.874275,17.7039059 139.521804,17.6835922 139.179216,17.6435137 C138.585176,17.5732392 138.00102,17.4321412 137.447608,17.2405333 C135.987216,16.7469647 134.708549,15.8608471 133.731294,14.7232784 C132.684314,13.5148863 131.979373,12.0144157 131.747686,10.3629647 C131.687294,9.95998431 131.657098,9.54712157 131.657098,9.13425882 C131.657098,8.61049412 131.707608,8.10704314 131.798196,7.61402353 C132.482824,3.73684706 135.765412,0.766101961 139.783686,0.564611765 L162.875451,0.564611765 L158.032,7.61402353 L141.576235,7.61402353 C141.042588,7.64421961 140.589098,7.98625882 140.398039,8.4699451 L140.317333,8.72139608 Z" id="Fill-39" fill="#55A0FE"></path>
                </g>
                <g id="chat-logo">
                    <g id="Group-19">
                        <path d="M21.4871429,22.157619 L11.9042857,22.157619 L6.79285714,27.3995238 C6.16047619,27.9233333 5.62333333,27.8938095 5.62333333,26.6861905 L5.71380952,22.157619 L2.32238095,22.157619 C1.03952381,22.157619 -0.000476190476,21.117619 -0.000476190476,19.8357143 L-0.000476190476,9.34619048 C-0.000476190476,8.06333333 1.03952381,7.02333333 2.32238095,7.02333333 L21.4871429,7.02333333 C22.77,7.02333333 23.8090476,8.06333333 23.8090476,9.34619048 L23.8090476,19.8357143 C23.8090476,21.117619 22.77,22.157619 21.4871429,22.157619" id="Fill-1" fill="url(#linearGradient-3)"></path>
                        <path d="M17.7985714,16.0861905 L27.3814286,16.0861905 L32.4928571,21.3280952 C33.1252381,21.8519048 33.662381,21.822381 33.662381,20.6147619 L33.5719048,16.0861905 L36.9633333,16.0861905 C38.2461905,16.0861905 39.2861905,15.0461905 39.2861905,13.7642857 L39.2861905,3.2747619 C39.2861905,1.99190476 38.2461905,0.951904762 36.9633333,0.951904762 L17.7985714,0.951904762 C16.5157143,0.951904762 15.4766667,1.99190476 15.4766667,3.2747619 L15.4766667,13.7642857 C15.4766667,15.0461905 16.5157143,16.0861905 17.7985714,16.0861905" id="Fill-4" fill="url(#linearGradient-4)"></path>
                        <path d="M21.4871429,7.02361905 L15.4757143,7.02361905 L15.4757143,13.763619 C15.4757143,15.0464762 16.5157143,16.0864762 17.7985714,16.0864762 L23.8090476,16.0864762 L23.8090476,9.34552381 C23.8090476,8.06361905 22.77,7.02361905 21.4871429,7.02361905" id="Fill-7" fill="#FFFFFF"></path>
                    </g>
                </g>
            </g>
        </g>
    </g>
</svg>