<?xml version="1.0" encoding="UTF-8"?>
<svg width="270px" height="270px" viewBox="0 0 270 270" version="1.1" xmlns="http://www.w3.org/2000/svg" xmlns:xlink="http://www.w3.org/1999/xlink">
    <!-- Generator: Sketch 47.1 (45422) - http://www.bohemiancoding.com/sketch -->
    <title>favicon-2 copy 2</title>
    <desc>Created with Sketch.</desc>
    <defs></defs>
    <g id="Favicon" stroke="none" stroke-width="1" fill="none" fill-rule="evenodd">
        <g id="favicon-2-copy-2" fill="#000000">
            <path d="M138.460326,166.260218 L138.443372,166.168496 L136.262417,154.534393 L131.132474,126.961007 L130.490826,123.466684 L128.310951,111.832581 L126.216413,100.623826 L124.078667,89.1598625 C123.224216,85.068974 119.590372,82 115.27167,82 L84.4066747,82 C81.3280607,82 78.591875,83.534487 76.9672309,85.8787524 C76.9672309,85.9207489 76.9251025,85.9638222 76.8818939,86.0058187 L59.0983072,111.832581 L51.0604241,123.466684 L29.599784,154.534393 L21.6061897,166.168496 L1,196 L83.551144,196 L104.157334,166.168496 L104.114125,166.168496 L66.6652163,166.168496 L74.7020192,154.534393 L96.1194507,123.466684 L96.2479963,123.338541 L96.2479963,123.466684 L102.061716,154.534393 L104.199462,166.040353 L104.199462,166.083426 L104.199462,166.168496 L109.800379,196 L131,196 L204.478241,196 C220.138339,196 233.493356,186.070429 238.570355,172.220073 C238.783828,171.623502 238.997301,171.026931 239.168727,170.430359 L240.618835,166.168214 L241.472729,163.611789 C242.368669,160.714004 242.88079,157.686998 242.88079,154.534001 L242.88079,154.405857 C242.88079,145.92464 239.467374,138.254286 233.877177,132.671931 C229.312299,127.983356 223.209982,124.787286 216.383149,123.849355 C214.933041,123.594143 213.39668,123.465999 211.860319,123.465999 L179.133141,123.465999 C175.933198,123.465999 173.330549,120.823426 173.330549,117.627356 C173.330549,117.243999 173.372596,116.860643 173.415722,116.519284 L173.757495,115.454286 C174.568262,113.408284 176.487366,111.95993 178.74932,111.831786 L248.476377,111.831786 L269,82 L171.154846,82 C154.129813,82.8517829 140.219549,95.4239267 137.318254,111.831786 C136.934433,113.919785 136.72096,116.050857 136.72096,118.267 C136.72096,120.01364 136.848181,121.761356 137.10478,123.465999 C138.085895,130.454711 141.073443,136.804855 145.510021,141.918783 C149.649031,146.734426 155.067802,150.485071 161.255293,152.573069 C163.60242,153.382856 166.07677,153.979427 168.594245,154.277712 C170.045432,154.44893 171.538667,154.534001 173.031902,154.534001 L198.377002,154.534001 C201.448645,154.704142 203.838899,157.261645 203.838899,160.329571 C203.838899,160.714004 203.795773,161.139357 203.710599,161.522713 C203.625426,161.906069 203.497126,162.247428 203.368827,162.588788 C202.516012,164.676786 200.425483,166.168214 197.993181,166.168214 L138.523623,166.168214 L138.460326,166.260218 Z" id="Combined-Shape"></path>
        </g>
    </g>
</svg>