<?xml version="1.0" encoding="UTF-8"?>
<svg xmlns="http://www.w3.org/2000/svg" xmlns:xlink="http://www.w3.org/1999/xlink" width="124px" height="76px" viewBox="0 0 124 76" version="1.1">
    <!-- Generator: Sketch 47.1 (45422) - http://www.bohemiancoding.com/sketch -->
    
    
    <defs/>
    <g id="Page-1" stroke="none" stroke-width="1" fill="none" fill-rule="evenodd">
        <g id="Artboard" fill-rule="nonzero" fill="#FFFFFF">
            <g id="edit" transform="translate(1.000000, 49.000000)">
                <path d="M21.9044745,1.0952381 C20.4432881,-0.365079365 18.0666747,-0.365079365 16.6054883,1.0952381 L1.59315108,16.1072017 C1.58607411,16.1142785 1.58191119,16.1230204 1.5756668,16.1305135 C1.56692466,16.1405042 1.5594314,16.1513276 1.55152184,16.1621509 C1.52945834,16.1929558 1.51239036,16.2258421 1.49948529,16.2616423 C1.49573866,16.2724657 1.49032686,16.2820401 1.48741281,16.2928635 C1.48616393,16.2970263 1.48366618,16.3011891 1.4824173,16.3053519 L0.0108236029,22.4871405 C0.00416292418,22.5150314 0.00249775451,22.5433386 0.00166516967,22.5712295 C0.00166516967,22.5766411 0,22.5816365 0,22.5870482 C0.000416292418,22.6345044 0.0108236029,22.6807117 0.0270590072,22.7252538 C0.0308056389,22.7356609 0.0349685631,22.7448191 0.0395477797,22.7548099 C0.0599461082,22.799352 0.0853399457,22.8422291 0.121141094,22.8780294 C0.160688873,22.9175762 0.207313624,22.9479647 0.257685007,22.9687788 C0.308056389,22.9895929 0.361758111,23 0.415459833,23 C0.44751435,23 0.479985158,22.9962535 0.511623382,22.9887604 L6.69356579,21.5172033 C6.70480569,21.5147056 6.71479671,21.5084614 6.72562031,21.5047148 C6.73977425,21.5001357 6.75309561,21.4947241 6.76683326,21.4884798 C6.79680631,21.4747425 6.8246979,21.457675 6.85050803,21.4372772 C6.86049905,21.4293678 6.87090636,21.4235398 6.88048109,21.4147979 C6.88381143,21.4114677 6.88797435,21.4098025 6.89130469,21.4064723 L21.9040582,6.39409241 C23.3652446,4.93294239 23.3652446,2.55597184 21.9044745,1.0952381 Z M21.315837,1.68386093 C22.3515725,2.71998697 22.4398265,4.34681725 21.5864271,5.48743009 L17.5121732,1.41327759 C18.6532307,0.559899368 20.2801014,0.648151165 21.315837,1.68386093 Z M19.2551895,7.86564949 L15.1338946,3.74445711 L15.722532,3.15583428 L19.843827,7.27702666 L19.2551895,7.86564949 Z M2.06522669,20.9339921 C1.90245635,20.7712259 1.63935954,20.7712259 1.47658921,20.9339921 L1.16145585,21.2491177 L2.22466668,16.7832437 L4.06551176,16.5788493 L3.82864137,18.711046 C3.8269762,18.7268647 3.83280429,18.7414345 3.83280429,18.756837 C3.83280429,18.7726557 3.8269762,18.7868093 3.82864137,18.802628 C3.83030654,18.8163653 3.83738351,18.8276049 3.84029756,18.840926 C3.84529307,18.8650703 3.85237004,18.8871333 3.86111218,18.9096125 C3.87193578,18.9366708 3.88484085,18.9612315 3.90065996,18.9849595 C3.91356502,19.0041085 3.92647009,19.0211761 3.9422892,19.0378274 C3.96227124,19.0590578 3.98391844,19.0769579 4.00764711,19.0936092 C4.02638027,19.1065139 4.04428084,19.1185861 4.06509546,19.1285769 C4.09257076,19.1414816 4.12129494,19.1489747 4.15126799,19.1560515 C4.16708711,19.159798 4.17999217,19.1685399 4.19622758,19.1706213 C4.2112141,19.1722865 4.22620063,19.173119 4.24160345,19.173119 C4.24160345,19.173119 4.24201974,19.173119 4.24201974,19.173119 C4.24201974,19.173119 4.24243603,19.173119 4.24243603,19.173119 L4.24285233,19.173119 C4.24285233,19.173119 4.24326862,19.173119 4.24326862,19.173119 C4.25825515,19.173119 4.27365796,19.1722865 4.28864449,19.1706213 L6.42089426,18.9337569 L6.21649468,20.7745561 L1.75009333,21.8377405 L2.06522669,21.522615 C2.22758073,21.360265 2.22758073,21.0967584 2.06522669,20.9339921 Z M7.28969653,18.6531827 L16.6054883,9.33720657 C16.7682586,9.17444028 16.7682586,8.91135002 16.6054883,8.74858374 C16.4427179,8.58581745 16.1796211,8.58581745 16.0168508,8.74858374 L6.70105906,18.0645599 L4.71409534,18.2851894 L4.93473033,16.2982751 L14.2513546,6.98271524 C14.414125,6.81994896 14.414125,6.5568587 14.2513546,6.39409241 C14.0885843,6.23132613 13.8254875,6.23132613 13.6627172,6.39409241 L4.34609285,15.7096523 L3.02103408,15.8570162 L14.5452571,4.33307994 L18.666552,8.45427232 L7.14232902,19.9782085 L7.28969653,18.6531827 Z M20.4324645,6.68840383 L16.3111695,2.56721145 L16.9002233,1.97817234 L21.0215182,6.09936472 L20.4324645,6.68840383 Z" id="Shape"/>
            </g>
            <g id="two-round-overlapping-speech-bubbles" transform="translate(97.000000, 50.000000)">
                <path d="M18.0693249,0.527727095 C17.1470215,0.527727095 16.2568099,0.647426115 15.4192389,0.869384896 C14.0246138,0.312845114 12.4688333,0 10.8277233,0 C4.85740479,-5.05485724e-05 0,4.12031523 0,9.18472615 C0,11.8710289 1.35735872,14.3824842 3.73861999,16.1294429 L3.73861999,21 L8.70638077,18.1908642 C9.40812145,18.3094006 10.1204599,18.3698061 10.8274248,18.3698061 C13.7867863,18.3698061 16.4715514,17.3567116 18.4281063,15.7187863 C18.875053,15.7034195 19.3233928,15.6600994 19.7669562,15.5870061 L23.96327,17.959655 L23.96327,13.8385816 C25.8990274,12.3951165 27,10.3331392 27,8.12689617 C27.0005971,3.93677336 22.9937493,0.527727095 18.0693249,0.527727095 Z M10.8277233,16.8895417 C10.1221515,16.8895417 9.41050967,16.8219078 8.71274937,16.688965 L8.45402479,16.6397812 L5.19523939,18.4823778 L5.19523939,15.3472542 L4.87163465,15.1275702 C2.70148269,13.6540793 1.45666916,11.4876686 1.45666916,9.1846756 C1.45666916,4.93627029 5.66054561,1.47980946 10.8277731,1.47980946 C11.6616623,1.47980946 12.4694801,1.57099908 13.2394842,1.73978076 C10.7745853,3.09377482 9.13785377,5.44999543 9.13785377,8.12679508 C9.13785377,11.7464267 12.1283119,14.7810091 16.1168997,15.5408553 C14.6103763,16.3906779 12.7886069,16.8895417 10.8277233,16.8895417 Z M22.8307031,12.8384275 L22.5071979,13.0581116 L22.5071979,15.44269 L20.020158,14.0367825 L20.0141875,14.0378946 L19.7618315,14.0858652 C19.2030859,14.1922194 18.6340908,14.2460031 18.0691259,14.2460031 C18.0081764,14.2460031 17.9484707,14.2433745 17.888168,14.2422625 C13.8499748,14.1628001 10.5944732,11.4512736 10.5944732,8.12679508 C10.5944732,5.54209493 12.5631682,3.3282191 15.3367455,2.43290279 C16.0431134,2.20497928 16.8013754,2.06238175 17.5933712,2.02118467 C17.7509444,2.01294525 17.9091645,2.0075871 18.0692752,2.0075871 C22.1908075,2.0075871 25.5438781,4.75272842 25.5438781,8.12679508 C25.5439279,9.95033482 24.5548039,11.6678237 22.8307031,12.8384275 Z" id="Shape"/>
            </g>
            <g id="sparkles" transform="translate(1.000000, 3.000000)">
                <path d="M13.6888073,15.1325306 L8.99466903,14.05093 C8.80819451,14.0079508 8.670873,13.8667912 8.64484438,13.6912382 L8.24603112,10.9951155 C8.21534475,10.7877953 8.00733498,10.6427469 7.78332446,10.6709788 C7.55843719,10.6992612 7.40089554,10.8901675 7.43158191,11.0974373 L7.83044996,13.7936105 C7.90212456,14.2778459 8.28088208,14.6673352 8.7953172,14.7858689 L11.8946408,15.5 L8.79318011,16.2145856 C8.28000532,16.3328163 7.90206976,16.7221541 7.83044996,17.2064905 L7.00027399,22.8177227 L6.17009801,17.2066925 C6.09842341,16.7223561 5.72048785,16.3330183 5.20725827,16.2147372 L2.10568794,15.500202 L5.20742266,14.7854649 C5.72048785,14.6671837 6.09836861,14.2778459 6.16998841,13.7936105 L7.00016439,8.18222681 L7.19189942,9.47826871 C7.22264059,9.68553845 7.43021199,9.83073837 7.65466088,9.80235494 C7.87954816,9.77407252 8.03703501,9.58316619 8.00634863,9.37584595 L7.4073616,5.32762154 C7.37957947,5.13994748 7.20565349,5 7.00010959,5 C6.79462049,5 6.62063972,5.13994748 6.59285759,5.32762154 L5.35542961,13.6912382 C5.32945579,13.8668417 5.19301102,14.0079003 5.00785164,14.050526 L0.311302292,15.1327831 C0.128334795,15.1749542 0,15.3264672 0,15.5002525 C0,15.6740379 0.128334795,15.8255509 0.311302292,15.867722 L5.00779684,16.9497266 C5.19301102,16.9924027 5.32951058,17.1334613 5.35548441,17.3090648 L6.59285759,25.672429 C6.62063972,25.860103 6.79456569,26 7.00010959,26 C7.20565349,26 7.37957947,25.8600525 7.4073616,25.672429 L8.64478958,17.3089133 C8.6707634,17.1332593 8.80720817,16.9922512 8.99242234,16.9496255 L13.6886977,15.8675199 C13.8716652,15.8253488 14,15.6738359 14,15.5000505 C14,15.3262651 13.8717748,15.1747017 13.6888073,15.1325306 Z" id="Shape"/>
                <path d="M19.7048305,6.62405622 L16.7732072,5.9173376 C16.7099126,5.90207503 16.6619668,5.85381233 16.65401,5.79729959 L15.8812306,0.332321722 C15.8542291,0.141694351 15.6917062,0 15.5000257,0 C15.3083452,0 15.1458223,0.141694351 15.1188207,0.332321722 L14.6512209,3.63903887 C14.6213446,3.85049758 14.7678,4.04622966 14.9782687,4.07629073 C15.1881214,4.10624866 15.3836519,3.95924335 15.4135795,3.74778464 L15.5000257,3.13661174 L15.8916001,5.9059938 C15.9444739,6.27966882 16.2199825,6.57929978 16.5935388,6.66932829 L17.9652299,7 L16.5922041,7.33098109 C16.2194179,7.42085491 15.9444739,7.72038274 15.8917027,8.09410933 L15.500077,10.8634914 L15.1084513,8.09416089 C15.0555774,7.72043431 14.7805821,7.42085491 14.4078472,7.33103265 L13.0347701,7.00005156 L14.4080526,6.66896735 C14.7806335,6.57909353 15.0555774,6.27961726 15.1085026,5.90589067 L15.1799079,5.40098853 C15.2097842,5.18952982 15.0633288,4.99374618 14.8528601,4.96373668 C14.6429048,4.9338303 14.4474769,5.08078405 14.4175493,5.29224276 L14.346144,5.7971449 C14.3380332,5.85463733 14.2917815,5.90166253 14.2283328,5.91692509 L11.2951695,6.62410778 C11.1220718,6.66587358 11,6.82133518 11,7.00015469 C11,7.1789742 11.1220718,7.33443579 11.2951695,7.3762016 L14.2282815,8.08317803 C14.2917301,8.09849216 14.3380332,8.14551736 14.346144,8.20300979 L15.1189747,13.6676783 C15.1459249,13.8583056 15.3084478,14 15.5001797,14 C15.6919115,14 15.8543831,13.8583056 15.8813846,13.6676783 L16.6542154,8.2028551 C16.6621208,8.1454658 16.7083725,8.09849216 16.7718212,8.08317803 L19.7048305,7.37615003 C19.8779282,7.33438423 20,7.17892263 20,7.00010313 C20,6.82128362 19.8779282,6.66582202 19.7048305,6.62405622 Z" id="Shape"/>
                <path d="M22.6802546,19.6086116 L20.1289926,19.0104377 C20.1066562,19.0051741 20.089904,18.9898129 20.0873353,18.9721959 L19.4148425,14.3470235 C19.3858611,14.1480798 19.2089569,14 19.0000558,14 C18.7912106,14 18.6142506,14.1480798 18.5852692,14.3470235 L17.9127206,18.9721422 C17.910096,18.9901352 17.8942372,19.005013 17.8722359,19.0102229 L15.3196337,19.608719 C15.1320639,19.6527079 15,19.8143765 15,20.0001074 C15,20.1858383 15.132008,20.3475069 15.3196337,20.3914958 L17.8722359,20.9898845 C17.8942372,20.9950407 17.910096,21.0099722 17.9127206,21.0279116 C17.9447174,21.2482857 18.1573598,21.4014681 18.385526,21.3710679 C18.6146415,21.3402381 18.7743467,21.1366216 18.7422939,20.9163011 C18.6918137,20.5692239 18.4280768,20.2908424 18.0705271,20.2071077 L17.1874023,20.0001074 L18.0706388,19.7930534 C18.4281327,19.7092651 18.6918137,19.4309372 18.7422939,19.0839137 L19.0000558,17.3112523 L19.2577619,19.0839137 C19.3082421,19.4308835 19.5724257,19.7093725 19.9306455,19.793322 L20.8125419,20.0001074 L19.9294729,20.2071077 C19.5719232,20.2909498 19.308298,20.5692776 19.2578177,20.9163011 L19.0001117,22.6889625 L18.9766026,22.527455 C18.9445499,22.3071345 18.7330243,22.1537911 18.5037972,22.1842986 C18.2746817,22.2151285 18.1149765,22.4186913 18.1470293,22.6390654 L18.585325,25.6529765 C18.6143065,25.8519202 18.7912665,26 19.0001117,26 C19.2090127,26 19.3859169,25.8519202 19.4148984,25.6529765 L20.0873911,21.0279116 C20.0900156,21.0099185 20.1059303,20.994987 20.1278758,20.9898308 L22.6803663,20.3914421 C22.8679361,20.3474532 23,20.1857846 23,20.0000537 C23,19.8143228 22.8678244,19.6526005 22.6802546,19.6086116 Z" id="Shape"/>
            </g>
            <g id="helmet" transform="translate(62.000000, 15.000000) rotate(10.000000) translate(-62.000000, -15.000000) translate(51.000000, 4.000000)">
                <path d="M20.5399795,4.99449944 L20.552232,4.97787336 C20.0131246,3.73091797 21.2302004,2.7458232 21.2832943,2.70841454 C21.4624351,2.56891141 21.4965378,2.30803795 21.3594636,2.12572268 C21.2967719,2.04233253 21.2053381,1.98616758 21.1035918,1.96855434 L16.684545,1.19959851 C14.9662423,0.373438603 13.0831954,-0.0362901574 11.1831992,0.00252132928 C5.65734861,0.00252132928 1.25055421,4.47493469 0.441893143,10.8842854 C-0.15439229,15.6019333 -0.293253281,19.0435302 0.960579786,20.494155 C1.37639698,20.9779218 1.98345435,21.2463809 2.61465924,21.2257022 C2.86481323,21.2238837 3.11399724,21.1946322 3.35797396,21.1384153 C4.94670706,20.7809548 6.73147921,20.5357202 8.45090502,20.3071117 C15.071307,19.3926778 21.9285895,18.4491482 21.9285895,11.2625286 C21.9932211,9.08737074 21.515478,6.93096921 20.5399795,4.99449944 Z M20.2050795,2.65437981 C19.9789199,2.95733801 19.8087131,3.29957531 19.7027294,3.66441368 C19.4976542,3.40125413 19.2780803,3.15004458 19.0451818,2.91208392 C18.8491428,2.71257106 18.6367671,2.52552775 18.4284756,2.34264096 L20.2050795,2.65437981 Z M1.25055421,10.9881984 L1.25463836,10.9674158 C1.41677898,9.64616263 1.76474829,8.35551184 2.2879275,7.1351062 C3.51317154,7.08107147 8.99818069,6.86077601 10.9136455,7.1351062 C11.7835688,7.28889737 13.4907422,8.14929659 13.7194544,9.36715636 C13.9481666,10.5850161 12.7147543,12.052267 10.1499101,13.5236744 C8.31612817,14.5794299 2.5411446,15.7681941 0.825802942,16.104872 C0.875425325,14.3926983 1.01719627,12.6845773 1.25055421,10.9881984 Z M8.34880135,19.450869 C6.60895481,19.691947 4.81193022,19.9371816 3.19052394,20.2821726 C3.0043379,20.3263876 2.81401666,20.3500797 2.62282753,20.3528334 C2.23054523,20.3848386 1.84495072,20.2352039 1.57320181,19.9454946 C1.08310419,19.3802082 0.870728557,18.2828874 0.825802942,16.9569582 C2.36552629,16.6576889 8.52033551,15.4232031 10.5460723,14.2552215 C13.486658,12.5593622 14.8262582,10.8718159 14.5199472,9.23414778 C14.2013837,7.50919282 12.0694591,6.49915895 11.0198334,6.34536778 C9.19013559,6.07935063 4.48519847,6.23729831 2.68408974,6.31211564 C4.4525253,2.94533607 7.56056101,0.837981445 11.1791151,0.837981445 C14.2299727,0.837981445 16.7498913,1.76072844 18.465233,3.50646599 C20.1805746,5.25220355 21.1199284,7.90406203 21.1158442,11.250059 L21.1199284,11.2292764 C21.1199284,17.6885054 14.9120253,18.5447481 8.34880135,19.450869 Z" id="Shape"/>
            </g>
            <g id="technics" transform="translate(99.000000, 5.000000)">
                <path d="M20.0993726,15.7662289 C18.2198698,13.8863706 18.3431219,14.0054617 18.2902117,13.9664073 L13.3151318,10.2925117 L15.245125,8.36231763 C16.7968305,8.91535469 18.5536554,8.53301619 19.7360147,7.35043335 C21.0241534,6.06205104 21.3622867,4.09231035 20.5774105,2.44903422 C20.3944805,2.06616241 19.8871575,1.97943885 19.5875379,2.27919716 L17.9964983,3.8705376 C17.7567206,4.11036066 17.3666204,4.11040169 17.1266786,3.8705376 C16.8862857,3.6300992 16.8862857,3.24103285 17.1266786,3.00059444 L18.7177592,1.40921297 C19.0177479,1.10920852 18.9305076,0.601912603 18.5479542,0.419194181 C16.9049888,-0.365830457 14.9356616,-0.0276331788 13.6474819,1.2607081 C12.4648355,2.44357811 12.0830205,4.20081736 12.6357889,5.75240608 L10.4099496,7.97846126 C9.95676725,7.62590578 10.554776,8.22808892 6.28647842,3.7013159 L6.73391855,3.25379114 C7.0169268,2.97077039 6.95794624,2.49686756 6.61546525,2.2913401 L3.32133129,0.314461326 C2.45782801,-0.203746827 1.35750016,-0.0682874124 0.645426798,0.643920611 C-0.0666055434,1.35608761 -0.202080361,2.45670561 0.316029809,3.32033116 L2.29253479,6.61512912 C2.49835151,6.95833126 2.97236982,7.01609227 3.25480385,6.73360483 L3.67677324,6.31155563 C7.92296335,10.8149043 7.36408358,10.2032037 7.69975597,10.6348934 C7.70771302,10.6451082 7.7165724,10.6541334 7.72502164,10.6637329 L5.75130572,12.637658 C4.2000924,12.084785 2.44306237,12.4666722 1.26049805,13.6495423 C-0.0276406399,14.9379246 -0.365773971,16.9076242 0.419143248,18.5509414 C0.602114232,18.9338542 1.10931423,19.0204957 1.40901586,18.7207784 L3.00005541,17.129397 C3.23995617,16.8895329 3.63005637,16.8896149 3.8698751,17.129397 C4.11026805,17.3698354 4.11026805,17.7589017 3.8698751,17.9993401 L2.27875352,19.5907216 C1.97876478,19.8907261 2.06604616,20.398022 2.44855847,20.5807814 C3.03910234,20.8629407 3.67164628,21 4.29976053,21 C5.41907865,20.999959 6.52387722,20.5645361 7.34903083,19.7392675 C8.53167717,18.5563975 8.91349221,16.7991582 8.36072378,15.2475285 L10.0463045,13.5617521 L13.9708496,18.3319582 C14.000709,18.3681409 13.9021893,18.2673053 15.6574557,20.0229036 C16.2964391,20.6620078 17.145956,20.9933132 17.9813225,20.9933132 C18.594261,20.9933132 19.1996115,20.8147791 19.708083,20.4485629 C21.2597475,19.3307971 21.4426774,17.1096647 20.0993726,15.7662289 Z M4.13717434,5.00664088 C3.89875015,4.75381339 3.49905227,4.74938286 3.25480385,4.9937185 L2.94197719,5.30656329 L1.37078924,2.68733941 C1.14364436,2.30869302 1.20299406,1.82613424 1.51520548,1.51386378 C1.82741689,1.20155229 2.30988443,1.14223239 2.68841821,1.36942023 L5.30714684,2.94094635 L4.99432018,3.25375011 C4.75909521,3.48901957 4.75351708,3.86873257 4.98176938,4.1107709 C9.88609721,9.31209242 9.11463314,8.52940612 9.53332128,8.85513227 L8.59992727,9.78862076 C8.27733889,9.37370964 9.02636738,10.1919222 4.13717434,5.00664088 Z M7.20051302,14.6679903 C7.01618852,14.8523497 6.96807712,15.132868 7.0804601,15.3681374 C7.64110354,16.5419002 7.39943911,17.9488813 6.47925215,18.8692423 C5.88969265,19.4589133 5.10055082,19.7700351 4.30082693,19.769953 C4.15698492,19.769953 4.01285579,19.7599023 3.86942393,19.7395547 L4.73961276,18.8692013 C5.46070957,18.1480091 5.46083262,16.9806049 4.73961276,16.2593307 C4.02023861,15.5397795 2.84960986,15.5398205 2.13023572,16.2593307 L1.26004688,17.1296841 C1.12682793,16.1888114 1.43469168,15.21512 2.13023572,14.5194444 C3.05046369,13.5990014 4.45713772,13.3574143 5.63067858,13.9180817 C5.86586254,14.0304449 6.14628679,13.9824065 6.33069333,13.7980061 L13.7959587,6.33186224 C13.9802832,6.14750288 14.0283946,5.86698456 13.9160526,5.63171511 C13.3554092,4.45799333 13.5970736,3.05097123 14.5172606,2.13061025 C15.2129276,1.43485262 16.186353,1.12697167 17.1270068,1.26025684 L16.2568179,2.13061025 C15.9083076,2.47914543 15.7163542,2.94262831 15.7163542,3.43556602 C15.7163542,3.92850373 15.9083076,4.39190456 16.2568179,4.7405218 C16.9761921,5.46007302 18.1468208,5.46003199 18.866195,4.7405218 L19.7363838,3.87016839 C19.8696028,4.8110411 19.561739,5.78473256 18.866195,6.48040813 C17.945967,7.40081014 16.5392519,7.64247925 15.3657111,7.08177081 C15.1306092,6.96940759 14.8501029,7.01748707 14.6657374,7.20184643 L7.20051302,14.6679903 Z M10.9176007,12.6903321 L12.4355503,11.1722185 L13.9826211,12.3146394 L12.1342491,14.1633609 C10.8775284,12.635894 10.9559504,12.7279506 10.9176007,12.6903321 Z M18.98916,19.4502573 C18.2717956,19.9669886 17.2133448,19.8392827 16.5271523,19.1529604 L14.9016596,17.5272013 L12.9194534,15.1178534 L14.9832808,13.0536357 L17.522562,14.9287763 L19.2295529,16.6361311 C20.0097944,17.4165201 19.9596732,18.7511358 18.98916,19.4502573 Z" id="Shape"/>
                <path d="M16.8535528,16.1464672 L14.8535417,14.1464478 C14.6583121,13.9511841 14.3417101,13.9511841 14.1464472,14.1464478 C13.9511843,14.3417115 13.9511843,14.6582815 14.1464472,14.8535453 L16.1464583,16.8535647 C16.3416879,17.0487951 16.6582899,17.0488284 16.8535528,16.8535647 C17.0488157,16.658301 17.0488157,16.341731 16.8535528,16.1464672 Z" id="Shape"/>
            </g>
            <g id="steering-wheel" transform="translate(51.000000, 49.000000)">
                <path d="M18.778168,3.22183202 C16.700517,1.14422983 13.9382012,0 10.9999512,0 C8.06179885,0 5.2994342,1.14422983 3.22183202,3.22183202 C1.14422983,5.2994342 0,8.06179885 0,11 C0,13.9382012 1.14418106,16.700517 3.22183202,18.778168 C5.29948298,20.8558189 8.06179885,22 11,22 C13.9382012,22 16.7005658,20.8558189 18.778168,18.778168 C20.8557702,16.7005658 22,13.9382012 22,11 C22,8.06179885 20.8557702,5.2994342 18.778168,3.22183202 Z M10.9999512,21.1219881 C5.41869086,21.1219881 0.877963126,16.5812604 0.877963126,11 C0.877963126,5.41873964 5.41869086,0.877963126 10.9999512,0.877963126 C16.5812604,0.877963126 21.1219881,5.41869086 21.1219881,10.9999512 C21.1219881,16.5812116 16.5813091,21.1219881 10.9999512,21.1219881 Z" id="Shape"/>
                <path d="M10.999976,2 C6.03733874,2 2,6.03733874 2,10.999976 C2,15.9626132 6.03733874,20 10.999976,20 C15.9626132,20 20,15.9626132 20,10.999976 C20,6.03733874 15.9626132,2 10.999976,2 Z M12.0716144,17.4250997 L9.92761717,17.4250997 C9.11739264,14.7195646 7.06584842,12.5340235 4.41285537,11.5584882 L5.15382419,8.41316488 C7.05662713,7.95013141 9.02196192,7.71479648 11.0001201,7.71479648 C12.9789506,7.71479648 14.9440933,7.95022746 16.8462238,8.41364516 L17.5870486,11.5582 C14.9337193,12.5334952 12.8818869,14.7191803 12.0716144,17.4250997 Z M2.86449564,10.999976 C2.86449564,10.3116934 2.9507531,9.6431981 3.11246181,9.00443187 C3.47415718,8.88239391 3.83988687,8.76852062 4.20672119,8.6634844 L3.58567712,11.2996678 C3.34962178,11.2380965 3.10977227,11.1856024 2.86632069,11.14305 C2.86550422,11.0954067 2.86449564,11.0478114 2.86449564,10.999976 Z M18.4143229,11.2995237 L17.7933749,8.66372454 C18.1605454,8.76876076 18.5262751,8.88263404 18.8876342,9.00472004 C19.0492469,9.64339021 19.1355044,10.3117894 19.1355044,10.999976 C19.1355044,11.0477634 19.1344958,11.0953587 19.1336793,11.142954 C18.8902277,11.1855064 18.6503782,11.2379524 18.4143229,11.2995237 Z M10.999976,2.86449564 C14.4228985,2.86449564 17.3585816,4.98952199 18.5578292,7.98946596 C18.1448884,7.86152061 17.7285857,7.7439492 17.3130995,7.63848073 C15.2629961,7.11555692 13.1390264,6.85039689 11.0001201,6.85039689 C8.86207826,6.85039689 6.73796443,7.11541284 4.68690049,7.63795243 C4.27165442,7.743613 3.85539976,7.8613285 3.44217084,7.98936991 C4.64146644,4.98942594 7.57710154,2.86449564 10.999976,2.86449564 Z M2.92995718,12.0344411 C6.33294822,12.723252 8.93676108,15.526187 9.37501234,18.9723068 C5.99584295,18.2846005 3.37113812,15.4957376 2.92995718,12.0344411 Z M10.2594394,19.1014048 C10.2319677,18.8271676 10.1923449,18.5563403 10.1407153,18.2895954 L11.8586123,18.2895954 C11.8069346,18.5563403 11.76736,18.8272156 11.7398882,19.1015009 C11.4961004,19.1235935 11.249479,19.1355044 11.000024,19.1355044 C10.7503289,19.1354563 10.5034193,19.1235455 10.2594394,19.1014048 Z M12.6242672,18.9724509 C13.0625185,15.5257067 15.6666676,12.7226757 19.0700909,12.034297 C18.6289099,15.4959297 16.0038209,18.2849367 12.6242672,18.9724509 Z" id="Shape"/>
                <path d="M10.4999756,8 C9.12149396,8 8,9.12149396 8,10.4999756 C8,11.878506 9.12149396,13 10.4999756,13 C11.878506,13 13,11.878506 13,10.4999756 C13,9.12149396 11.878506,8 10.4999756,8 Z M10.4999756,12.1206929 C9.60630721,12.1206929 8.8792583,11.3936439 8.8792583,10.4999267 C8.8792583,9.60625837 9.60630721,8.87920945 10.4999756,8.87920945 C11.3936439,8.87920945 12.1207417,9.60625837 12.1207417,10.4999267 C12.1207417,11.3936439 11.3936928,12.1206929 10.4999756,12.1206929 Z" id="Shape"/>
            </g>
        </g>
    </g>
</svg>
